<svg width="14" height="14" viewBox="0 0 14 14" fill="none" xmlns="http://www.w3.org/2000/svg">
<g filter="url(#filter0_i)">
<path d="M8.41 7L12.71 2.71C12.8983 2.5217 13.0041 2.2663 13.0041 2C13.0041 1.7337 12.8983 1.47831 12.71 1.29C12.5217 1.1017 12.2663 0.995911 12 0.995911C11.7337 0.995911 11.4783 1.1017 11.29 1.29L7 5.59L2.71 1.29C2.5217 1.1017 2.2663 0.995911 2 0.995911C1.7337 0.995911 1.4783 1.1017 1.29 1.29C1.1017 1.47831 0.995908 1.7337 0.995908 2C0.995908 2.2663 1.1017 2.5217 1.29 2.71L5.59 7L1.29 11.29C1.19627 11.383 1.12188 11.4936 1.07111 11.6154C1.02034 11.7373 0.994202 11.868 0.994202 12C0.994202 12.132 1.02034 12.2627 1.07111 12.3846C1.12188 12.5064 1.19627 12.617 1.29 12.71C1.38296 12.8037 1.49356 12.8781 1.61542 12.9289C1.73728 12.9797 1.86799 13.0058 2 13.0058C2.13201 13.0058 2.26272 12.9797 2.38458 12.9289C2.50644 12.8781 2.61704 12.8037 2.71 12.71L7 8.41L11.29 12.71C11.383 12.8037 11.4936 12.8781 11.6154 12.9289C11.7373 12.9797 11.868 13.0058 12 13.0058C12.132 13.0058 12.2627 12.9797 12.3846 12.9289C12.5064 12.8781 12.617 12.8037 12.71 12.71C12.8037 12.617 12.8781 12.5064 12.9289 12.3846C12.9797 12.2627 13.0058 12.132 13.0058 12C13.0058 11.868 12.9797 11.7373 12.9289 11.6154C12.8781 11.4936 12.8037 11.383 12.71 11.29L8.41 7Z" fill="#C4C4C4"/>
</g>
<path d="M8.05686 6.64604L7.70207 7L8.05686 7.35397L12.3569 11.644L12.3579 11.645C12.4048 11.6915 12.442 11.7468 12.4673 11.8077C12.4927 11.8686 12.5058 11.934 12.5058 12C12.5058 12.066 12.4927 12.1314 12.4673 12.1923C12.442 12.2532 12.4048 12.3085 12.3579 12.355L12.355 12.3579C12.3085 12.4048 12.2532 12.442 12.1923 12.4673C12.1314 12.4927 12.066 12.5058 12 12.5058C11.934 12.5058 11.8686 12.4927 11.8077 12.4673C11.7468 12.442 11.6915 12.4048 11.645 12.3579L11.644 12.3569L7.35396 8.05686L7 7.70207L6.64604 8.05686L2.35603 12.3569L2.355 12.3579C2.30852 12.4048 2.25321 12.442 2.19229 12.4673C2.13136 12.4927 2.06601 12.5058 2 12.5058C1.93399 12.5058 1.86864 12.4927 1.80771 12.4673C1.74679 12.442 1.69148 12.4048 1.645 12.3579L1.6421 12.355C1.59524 12.3085 1.55804 12.2532 1.53266 12.1923C1.50727 12.1314 1.4942 12.066 1.4942 12C1.4942 11.934 1.50727 11.8686 1.53266 11.8077C1.55804 11.7468 1.59524 11.6915 1.6421 11.645L1.64314 11.644L5.94314 7.35397L6.29793 7L5.94314 6.64604L1.64355 2.35645C1.6435 2.35639 1.64344 2.35633 1.64338 2.35628C1.54895 2.26176 1.49591 2.13361 1.49591 2C1.49591 1.86631 1.54902 1.73809 1.64355 1.64356C1.73809 1.54902 1.86631 1.49591 2 1.49591C2.13361 1.49591 2.26176 1.54896 2.35628 1.64338C2.35633 1.64344 2.35639 1.6435 2.35645 1.64356L6.64604 5.94314L7 6.29793L7.35396 5.94314L11.6436 1.64356C11.6436 1.64353 11.6436 1.64351 11.6436 1.64348C11.7382 1.54899 11.8663 1.49591 12 1.49591C12.1337 1.49591 12.2619 1.54902 12.3564 1.64356C12.451 1.73809 12.5041 1.86631 12.5041 2C12.5041 2.13365 12.451 2.26183 12.3565 2.35635C12.3565 2.35639 12.3565 2.35642 12.3564 2.35645L8.05686 6.64604Z" stroke="#EE1313"/>
<defs>
<filter id="filter0_i" x="0.994202" y="0.995911" width="12.0116" height="16.0099" filterUnits="userSpaceOnUse" color-interpolation-filters="sRGB">
<feFlood flood-opacity="0" result="BackgroundImageFix"/>
<feBlend mode="normal" in="SourceGraphic" in2="BackgroundImageFix" result="shape"/>
<feColorMatrix in="SourceAlpha" type="matrix" values="0 0 0 0 0 0 0 0 0 0 0 0 0 0 0 0 0 0 127 0" result="hardAlpha"/>
<feOffset dy="4"/>
<feGaussianBlur stdDeviation="2"/>
<feComposite in2="hardAlpha" operator="arithmetic" k2="-1" k3="1"/>
<feColorMatrix type="matrix" values="0 0 0 0 0 0 0 0 0 0 0 0 0 0 0 0 0 0 0.25 0"/>
<feBlend mode="normal" in2="shape" result="effect1_innerShadow"/>
</filter>
</defs>
</svg>
